# xmcd
#
# Track frame offsets:
#	150
#	19745
#	44705
#	62142
#	75851
#	91546
#	110126
#	128044
#	142968
#	158384
#	177979
#	202939
#	220376
#	234085
#	249780
#	268360
#	286278
#	301202
#
# Disc length: 4221
#
# Revision: 1
# Processed by: cddbd v1.5.1PL2 Copyright (c) Steve Scherf et al.
# Submitted via: kTunes Pro (development) 1.0patch41
#
DISCID=ea107b12
DTITLE=Various Artist - PHC0601
DYEAR=2006
DGENRE=Country
TTITLE0=Dixie Chicks - I Hope
TTITLE1=Brooks and Dunn - Believe
TTITLE2=Carrie Underwood - Jesus, Take The Wheel
TTITLE3=Gretchen Wilson - I Don't Feel Like Loving You Today
TTITLE4=Van Zant - Ain't Nobody Gonna Tell me What To Do
TTITLE5=Sugarland - Just Might (Make Me Believe)
TTITLE6=Trace Adkins - Honky Tonk Badonkadonk
TTITLE7=Montgomory Gentry - She Don't Tell me To
TTITLE8=Lisa Brokop - Big Picture
TTITLE9=Dixie Chicks - I Hope (multiplex)
TTITLE10=Brooks and Dunn - Believe (multiplex)
TTITLE11=Carrie Underwood - Jesus, Take The Wheel (multiplex)
TTITLE12=Gretchen Wilson - I Don't Feel Like Loving You Today (multiplex)
TTITLE13=Van Zant - Ain't Nobody Gonna Tell Me What To Do (multiplex)
TTITLE14=Sugarland - Just Might (Make Me Believe) (multiplex)
TTITLE15=Trace Adkins - Honky Tonk Badonkadonk (multiplex)
TTITLE16=Montgomery Gentry - She Don't Tell Me To (multiplex)
TTITLE17=Lisa Brokop - Big Picture (multiplex)
EXTD=
EXTT0=
EXTT1=
EXTT2=
EXTT3=
EXTT4=
EXTT5=
EXTT6=
EXTT7=
EXTT8=
EXTT9=
EXTT10=
EXTT11=
EXTT12=
EXTT13=
EXTT14=
EXTT15=
EXTT16=
EXTT17=
PLAYORDER=
